<svg xmlns="http://www.w3.org/2000/svg" version="1.1" xmlns:xlink="http://www.w3.org/1999/xlink" xmlns:svgjs="http://svgjs.dev/svgjs" width="100%" height="100%" viewBox="0 0 1000 600"><rect width="1000" height="600" x="0" y="0" fill="#df678c"/><g><circle r="166.66666666666666" cx="283.79653422037757" cy="306.01873809800463" fill="#3d155f" transform="matrix(1.0671918600561254,0,0,1.0671918600561254,0,-26.5807036765935)"/><path d="M297.69756039755487 346.16363105508185L297.69756039755487 277.10950657290243Q297.69756039755487 273.5419835147376 297.2464942637639 270.3025085538752Q296.79542812997295 267.06303359301296 295.4832357407629 264.5616668510812Q294.13003733939 262.01929409698675 291.6286705974583 260.420059622637Q289.12730385552663 258.7798191361244 284.6986545419427 258.7798191361244L284.6986545419427 258.7798191361244Q282.3203058364995 258.7798191361244 279.8189390945678 259.5179273550551Q277.3175723526361 260.25603557398574 275.2262657323326 262.01929409698675L275.2262657323326 262.01929409698675Q274.0780973917738 259.6819514037063 273.75004929447124 257.46762674691433Q273.4630072093316 255.2533020901224 273.4630072093316 252.87495338467915L273.4630072093316 252.87495338467915Q273.4630072093316 243.44357058723185 281.4591795810804 237.25166275064686Q289.41434594066635 231.0187489018991 300.64999327327746 231.0187489018991L300.64999327327746 231.0187489018991Q318.3645905276133 231.0187489018991 327.7959733250606 240.04007157771824Q337.2273561225079 249.0613942535374 337.2273561225079 265.87385924029127L337.2273561225079 265.87385924029127L337.2273561225079 381.018741393474Q330.4613641156435 381.018741393474 323.5313480601279 379.37850090696145Q316.56032599244946 377.7792664326116 310.81948428965546 373.80168325281863Q305.07864258686146 369.7830940608628 301.38810149220814 363.1401200904869Q297.69756039755487 356.497146120111 297.69756039755487 346.16363105508185L297.69756039755487 346.16363105508185ZM269.93649016332955 231.0187489018991L269.93649016332955 334.9689897346335Q269.93649016332955 338.49550678063554 270.3875562971205 341.7349817414979Q270.79761641874865 345.015462714523 272.1508148201215 347.51682945645473Q273.4630072093316 350.01819619838636 275.9643739512632 351.6584366848989Q278.5067467053577 353.25767115924873 282.9353960189417 353.25767115924873L282.9353960189417 353.25767115924873Q285.27273871222206 353.25767115924873 287.77410545415376 352.519562940318Q290.31647820824827 351.7814547213874 292.366778816389 350.01819619838636L292.366778816389 350.01819619838636Q293.5559531691106 352.39654490382964 293.8429952542503 354.6108695606216Q294.13003733939 356.8251942174136 294.13003733939 359.1625369106939L294.13003733939 359.1625369106939Q294.13003733939 368.63492572030407 286.17487097980404 374.826833556889Q278.17869860805524 381.018741393474 266.9840572876069 381.018741393474L266.9840572876069 381.018741393474Q249.26946003327112 381.018741393474 239.79707122366096 371.58735859602666Q230.36568842621367 362.1149697864166 230.36568842621367 347.9678955902457L230.36568842621367 347.9678955902457L230.36568842621367 265.87385924029127Q230.36568842621367 256.11442834554146 234.05622952086696 249.47145437516556Q237.74677061552023 242.82848040478962 243.48761231831426 238.72787918850818Q249.26946003327112 234.58627196006395 256.1994760887867 232.82301343706294Q263.12949214430233 231.0187489018991 269.93649016332955 231.0187489018991L269.93649016332955 231.0187489018991Z " fill="#df678c" transform="matrix(1.0671918600561254,0,0,1.0671918600561254,0,-26.5807036765935)"/><path d="M555.0378199368186 251.23587433185227L555.0378199368186 340.6049905659921L553.563014443154 340.6049905659921Q549.7326168415532 340.6049905659921 546.1889869748317 339.8675878191599Q542.6453571081101 339.13018507232766 539.9210636267577 337.20474456671013Q537.1967701454053 335.29978747072687 535.4966471457643 331.8995414714449Q533.7965241461234 328.51977888179715 533.7965241461234 323.0507085094581L533.7965241461234 323.0507085094581L533.7965241461234 233.53820840787867L536.1521162540596 233.53820840787867Q539.6957461207812 233.53820840787867 543.0959921200631 234.3370613836136Q546.4757547097108 235.15639776898274 549.1385979621606 237.14328850350293Q551.7809578049761 239.13017923802312 553.4196305757143 242.53042523730508Q555.0378199368186 245.93067123658705 555.0378199368186 251.23587433185227L555.0378199368186 251.23587433185227ZM587.3401569299972 326.4509545087401L587.3401569299972 326.4509545087401Q587.3401569299972 328.94993048411595 586.3774366771884 331.4693898691261Q585.4147164243795 333.96836584450193 583.571209557299 335.95525657902215Q581.7277026902184 337.94214731354236 578.8600253414264 339.2735689397672Q575.9718645830002 340.6049905659921 572.284850848839 340.6049905659921L572.284850848839 340.6049905659921L571.6908319694464 340.6049905659921Q567.717050500406 340.6049905659921 565.0542072479564 339.2121187108645Q562.4118474051409 337.7987634461027 560.7117244054998 335.8118727115825Q559.0116014058588 333.8249819770624 558.3561322975636 331.53084009802876Q557.680179779634 329.2571816286294 557.680179779634 327.4751249904515L557.680179779634 327.4751249904515Q557.680179779634 326.30757064130046 557.7621134181709 325.34485038849175Q557.8440470567077 324.3821301356829 558.2741986590265 323.19409237689763L558.2741986590265 323.19409237689763Q560.1996391646442 324.9761490150755 563.0058662845333 324.9761490150755L563.0058662845333 324.9761490150755Q565.2180745250301 324.9761490150755 566.6928800186946 323.56279375031374Q568.1676855123591 322.16992189518623 568.1676855123591 319.36369477529695L568.1676855123591 319.36369477529695L568.1676855123591 312.13305117441416Q568.4544532472382 311.98966730697464 570.1545762468793 311.92821707807195Q571.8546992465202 311.846283439535 572.8788697282316 311.846283439535L572.8788697282316 311.846283439535Q574.4970590893357 311.846283439535 577.0165184743458 312.35836868039075Q579.5154944497217 312.8704539212464 581.8096363287555 314.50912669198476Q584.0832947981548 316.12731605308875 585.7014841592588 318.99499340188083Q587.3401569299972 321.8831541603071 587.3401569299972 326.4509545087401ZM616.6723995262125 265.6766781239835L616.6723995262125 317.6021215467532Q616.6723995262125 319.36369477529695 616.8977170321891 320.98188413640094Q617.1230345381657 322.6205569071393 617.7785036464609 323.8700448948272Q618.4544561643904 325.11953288251516 619.7039441520785 325.93886926788434Q620.9534321397664 326.73772224361926 623.1656403802631 326.73772224361926L623.1656403802631 326.73772224361926Q624.3536781390484 326.73772224361926 625.6031661267364 326.36902087020314Q626.8526541144242 326.00031949678703 627.8973080057699 325.11953288251516L627.8973080057699 325.11953288251516Q628.4708434755283 326.30757064130046 628.6347107526021 327.4136747615488Q628.7780946200418 328.51977888179715 628.7780946200418 329.6873332309482L628.7780946200418 329.6873332309482Q628.7780946200418 334.419000856455 624.7838297413672 337.51199571122356Q620.8100482723269 340.6049905659921 615.1975940325481 340.6049905659921L615.1975940325481 340.6049905659921Q606.3487610705613 340.6049905659921 601.6375768546887 335.89380635011946Q596.9263926388162 331.16213872461265 596.9263926388162 324.09536240080377L596.9263926388162 324.09536240080377L596.9263926388162 283.0875763130779Q596.9263926388162 278.2125248201314 598.7698995058968 274.8942124593864Q600.6134063729774 271.57590009864134 603.4810837217693 269.52755913521844Q606.3487610705613 267.4587347621614 609.8309407083802 266.5779481478895Q613.2926369365648 265.6766781239835 616.6723995262125 265.6766781239835L616.6723995262125 265.6766781239835ZM650.3061581456161 283.0875763130779L650.3061581456161 323.19409237689763Q650.3061581456161 328.35591160472325 648.4626512785355 331.6742239654684Q646.619144411455 334.99253632621344 643.7514670626629 336.9999104703678Q640.8633063042366 338.986801204888 637.3196764375152 339.78565418062294Q633.7965299804277 340.6049905659921 630.5396678485854 340.6049905659921L630.5396678485854 340.6049905659921L630.5396678485854 288.70003055285656Q630.5396678485854 286.91797391467867 630.314350342609 285.29978455357457Q630.1095162462666 283.6815951924706 629.433563728337 282.4321072047826Q628.7780946200418 281.16213580746034 627.5286066323538 280.3632828317254Q626.2586352350316 279.54394644635636 624.046426994535 279.54394644635636L624.046426994535 279.54394644635636Q622.8788726453839 279.54394644635636 621.6293846576959 279.9126478197725Q620.3594132603738 280.2813491931886 619.3352427786624 281.16213580746034L619.3352427786624 281.16213580746034Q618.7412238992697 279.9945814583093 618.5978400318302 278.88847733806097Q618.4544561643904 277.7823732178126 618.4544561643904 276.59433545902743L618.4544561643904 276.59433545902743Q618.4544561643904 271.88315124315477 622.4282376334309 268.7901563883862Q626.4225025121054 265.6766781239835 632.0144733422499 265.6766781239835L632.0144733422499 265.6766781239835Q640.8633063042366 265.6766781239835 645.5949739297434 270.18302824351383Q650.3061581456161 274.68937836304417 650.3061581456161 283.0875763130779L650.3061581456161 283.0875763130779ZM683.345897885627 265.6766781239835L683.345897885627 317.6021215467532Q683.345897885627 319.36369477529695 683.5712153916036 320.98188413640094Q683.7760494879458 322.6205569071393 684.4520020058753 323.8700448948272Q685.1074711141707 325.11953288251516 686.3569591018586 325.93886926788434Q687.6269304991808 326.73772224361926 689.8391387396775 326.73772224361926L689.8391387396775 326.73772224361926Q691.0066930888286 326.73772224361926 692.2561810765164 326.36902087020314Q693.5261524738387 326.00031949678703 694.5503229555502 325.11953288251516L694.5503229555502 325.11953288251516Q695.1443418349427 326.30757064130046 695.2877257023824 327.4136747615488Q695.431109569822 328.51977888179715 695.431109569822 329.6873332309482L695.431109569822 329.6873332309482Q695.431109569822 334.419000856455 691.4573281007815 337.51199571122356Q687.4630632221069 340.6049905659921 681.8710923919625 340.6049905659921L681.8710923919625 340.6049905659921Q673.0222594299757 340.6049905659921 668.2905918044689 335.89380635011946Q663.5794075885963 331.16213872461265 663.5794075885963 324.09536240080377L663.5794075885963 324.09536240080377L663.5794075885963 283.0875763130779Q663.5794075885963 278.2125248201314 665.4229144556768 274.8942124593864Q667.2664213227574 271.57590009864134 670.1340986715495 269.52755913521844Q673.0222594299757 267.4587347621614 676.4839556581605 266.5779481478895Q679.9456518863451 265.6766781239835 683.345897885627 265.6766781239835L683.345897885627 265.6766781239835ZM697.2131662079998 361.2522674772946L697.2131662079998 288.70003055285656Q697.2131662079998 286.91797391467867 696.9878487020233 285.29978455357457Q696.7625311960469 283.6815951924706 696.1070620877515 282.4321072047826Q695.431109569822 281.16213580746034 694.1816215821341 280.3632828317254Q692.932133594446 279.54394644635636 690.7199253539493 279.54394644635636L690.7199253539493 279.54394644635636Q689.5318875951641 279.54394644635636 688.2823996074762 279.9126478197725Q687.0329116197881 280.2813491931886 685.9882577284425 281.16213580746034L685.9882577284425 281.16213580746034Q685.4147222586842 279.9945814583093 685.2508549816102 278.88847733806097Q685.1074711141707 277.7823732178126 685.1074711141707 276.59433545902743L685.1074711141707 276.59433545902743Q685.1074711141707 271.88315124315477 689.1017359928453 268.7901563883862Q693.0755174618857 265.6766781239835 698.6879717016643 265.6766781239835L698.6879717016643 265.6766781239835Q707.5368046636511 265.6766781239835 712.2479888795237 270.18302824351383Q716.9591730953964 274.68937836304417 716.9591730953964 283.0875763130779L716.9591730953964 283.0875763130779L716.9591730953964 343.6979854207606Q716.9591730953964 347.52838302236137 715.2795335053895 350.70331151566677Q713.5794105057487 353.8782400089723 710.7731833858593 356.2338321169086Q707.9669562659699 358.58942422484483 704.4233263992485 359.92084585106977Q700.900179942161 361.2522674772946 697.2131662079998 361.2522674772946L697.2131662079998 361.2522674772946ZM673.309027164855 366.8647217170733L673.309027164855 366.8647217170733Q673.309027164855 362.276437959006 675.0910838030329 359.408760610214Q676.8526570315764 356.54108326142205 679.3516330069524 354.9024104906837Q681.8710923919625 353.2842211295797 684.6773195118519 352.77213588872394Q687.4630632221069 352.2600506478682 689.5318875951641 352.2600506478682L689.5318875951641 352.2600506478682Q691.313944233342 352.2600506478682 692.481498582493 352.54681838274746L692.481498582493 352.54681838274746L692.481498582493 359.32682697167706Q692.481498582493 362.4403052360799 693.9563040761575 363.91511072974436Q695.431109569822 365.3899162234088 697.6433178103186 365.3899162234088L697.6433178103186 365.3899162234088Q700.3061610627683 365.3899162234088 702.3749854358255 363.6078595852309L702.3749854358255 363.6078595852309Q702.8051370381443 364.7958973440161 702.8870706766813 365.75861759682493Q702.9485209055838 366.7008544399994 702.9485209055838 367.8888921987847L702.9485209055838 367.8888921987847Q702.9485209055838 369.6504654273284 702.1496679298489 371.94460730636195Q701.3303315444798 374.2387491853956 699.6302085448388 376.2256399199158Q697.9505689548321 378.2125306544359 695.2057920638454 379.60540250956353Q692.481498582493 381.0187577743253 688.6511009808924 381.0187577743253L688.6511009808924 381.0187577743253Q684.6773195118519 381.0187577743253 681.7891587534257 379.68733614810037Q678.9214814046336 378.35591452187555 677.077974537553 376.36902378735545Q675.2344676704724 374.38213305283523 674.2717474176636 371.8626736678251Q673.309027164855 369.36369769244914 673.309027164855 366.8647217170733ZM729.4950197915443 242.98106024925812L729.4950197915443 242.98106024925812Q729.4950197915443 237.96262488887209 733.038649658266 234.50092866068744Q736.5822795249874 231.01874902286855 741.4573310179339 231.01874902286855L741.4573310179339 231.01874902286855Q746.3118991012461 231.01874902286855 749.7735953294307 234.50092866068744Q753.2557749672496 237.96262488887209 753.2557749672496 242.98106024925812L753.2557749672496 242.98106024925812Q753.2557749672496 247.97901220000992 749.7735953294307 251.37925819929185Q746.3118991012461 254.77950419857385 741.4573310179339 254.77950419857385L741.4573310179339 254.77950419857385Q736.5822795249874 254.77950419857385 733.038649658266 251.37925819929185Q729.4950197915443 247.97901220000992 729.4950197915443 242.98106024925812ZM731.707228032041 323.78811125629034L731.707228032041 265.6766781239835L733.3459008027792 265.6766781239835Q741.0066960059808 265.6766781239835 746.2504488723434 269.8143268700977Q751.4737183290717 273.95197561621194 751.4737183290717 282.94419244563824L751.4737183290717 282.94419244563824L751.4737183290717 340.6049905659921L750.5929317147998 340.6049905659921Q747.1926857155179 340.6049905659921 743.8743733547728 339.72420395172026Q740.5560609940278 338.8434173374484 737.8317675126752 336.836043193294Q735.1074740313229 334.8491524587738 733.4073510316819 331.6742239654684Q731.707228032041 328.51977888179715 731.707228032041 323.78811125629034L731.707228032041 323.78811125629034ZM800.142299619999 322.90732464201847L800.142299619999 288.70003055285656Q800.142299619999 286.91797391467867 799.9169821140226 285.29978455357457Q799.7121480176802 283.6815951924706 799.0361954997506 282.4321072047826Q798.3807263914555 281.16213580746034 797.1312384037674 280.3632828317254Q795.8612670064451 279.54394644635636 793.6490587659487 279.54394644635636L793.6490587659487 279.54394644635636Q792.4815044167974 279.54394644635636 791.2320164291095 279.9126478197725Q789.9620450317873 280.2813491931886 788.937874550076 281.16213580746034L788.937874550076 281.16213580746034Q788.3438556706833 279.9945814583093 788.2004718032438 278.88847733806097Q788.057087935804 277.7823732178126 788.057087935804 276.59433545902743L788.057087935804 276.59433545902743Q788.057087935804 271.88315124315477 792.3381205493579 268.7901563883862Q796.5986697532776 265.6766781239835 803.2352944747677 265.6766781239835L803.2352944747677 265.6766781239835Q811.2033408224825 265.6766781239835 815.5663070745734 270.469795978393Q819.9087899170297 275.2629138328025 819.9087899170297 284.56238180674234L819.9087899170297 284.56238180674234L819.9087899170297 340.6049905659921L819.028003302758 340.6049905659921Q810.1791703407712 340.6049905659921 805.1607349803851 336.4058915909752Q800.142299619999 332.2067926159583 800.142299619999 322.90732464201847L800.142299619999 322.90732464201847ZM766.5290244102298 323.78811125629034L766.5290244102298 265.6766781239835L768.1472137713338 265.6766781239835Q775.8080089745354 265.6766781239835 781.0517618408978 269.8143268700977Q786.2750312976261 273.95197561621194 786.2750312976261 282.94419244563824L786.2750312976261 282.94419244563824L786.2750312976261 340.6049905659921L785.3942446833544 340.6049905659921Q782.0144820937066 340.6049905659921 778.6961697329616 339.72420395172026Q775.3778573722166 338.8434173374484 772.6330804812299 336.836043193294Q769.9087869998775 334.8491524587738 768.2086640002365 331.6742239654684Q766.5290244102298 328.51977888179715 766.5290244102298 323.78811125629034L766.5290244102298 323.78811125629034Z " fill="#3d155f" transform="matrix(1.0671918600561254,0,0,1.0671918600561254,0,-26.5807036765935)"/></g></svg>